<svg xmlns="http://www.w3.org/2000/svg" xmlns:xlink="http://www.w3.org/1999/xlink" width="511" zoomAndPan="magnify" viewBox="0 0 383.25 161.249994" height="215" preserveAspectRatio="xMidYMid meet" version="1.0"><defs><g/></defs><path fill="#ff501c" d="M 115.53125 16.3125 L 138.511719 23.445312 C 142.78125 24.769531 145.171875 29.3125 143.847656 33.582031 L 122 103.992188 L 125.621094 115.59375 C 126.953125 119.859375 124.566406 124.40625 120.300781 125.738281 L 119.316406 126.042969 L 119.316406 127.816406 C 119.316406 131.984375 116.160156 135.417969 112.109375 135.863281 L 113.464844 131.496094 C 114.703125 130.738281 115.53125 129.371094 115.53125 127.816406 L 115.53125 127.226562 L 99.808594 132.128906 L 111.214844 132.128906 C 112.039062 132.128906 112.8125 131.898438 113.464844 131.496094 L 110.734375 140.304688 C 109.410156 144.574219 104.867188 146.964844 100.597656 145.640625 L 78.492188 138.78125 L 49.039062 147.972656 C 44.773438 149.300781 40.226562 146.917969 38.894531 142.652344 L 33.3125 124.761719 L 35.511719 125.445312 L 33.3125 124.761719 L 32.25 121.359375 L 33.3125 124.761719 L 29.300781 123.515625 L 32.25 124.433594 L 32.25 127.816406 C 32.25 129.855469 33.671875 131.566406 35.574219 132.015625 L 36.792969 135.914062 L 36.566406 135.914062 C 32.097656 135.914062 28.46875 132.285156 28.46875 127.816406 L 28.46875 123.207031 C 24.726562 121.582031 22.730469 117.363281 23.964844 113.382812 L 26.855469 104.066406 L 5.613281 35.980469 C 4.28125 31.710938 6.664062 27.167969 10.933594 25.835938 L 31.226562 19.503906 L 28.46875 20.363281 L 28.46875 16.070312 C 28.46875 11.601562 32.097656 7.972656 36.566406 7.972656 L 56.671875 7.972656 L 55.5 11.757812 L 36.566406 11.757812 C 34.183594 11.757812 32.25 13.691406 32.25 16.070312 L 32.25 19.183594 L 55.4375 11.949219 L 54.078125 16.339844 L 12.058594 29.449219 C 9.785156 30.15625 8.515625 32.578125 9.226562 34.851562 L 42.507812 141.523438 C 43.214844 143.796875 45.636719 145.066406 47.910156 144.359375 L 119.175781 122.125 L 119.316406 122.078125 L 119.339844 122.066406 C 121.507812 121.296875 122.699219 118.9375 122.007812 116.71875 L 88.726562 10.046875 C 88.460938 9.199219 87.957031 8.492188 87.3125 7.972656 L 87.300781 7.960938 C 86.21875 7.101562 84.742188 6.773438 83.320312 7.214844 L 54.078125 16.339844 L 57.082031 6.65625 C 58.40625 2.386719 62.949219 -0.00390625 67.21875 1.320312 L 91.542969 8.871094 L 78.390625 4.789062 L 82.195312 3.601562 C 86.132812 2.371094 90.308594 4.308594 91.972656 7.972656 L 92.074219 8.199219 C 92.046875 8.132812 92.015625 8.066406 91.988281 8 C 91.988281 8 91.972656 7.972656 91.972656 7.972656 L 111.214844 7.972656 C 115.6875 7.972656 119.316406 11.601562 119.316406 16.070312 L 119.316406 17.488281 L 115.53125 16.3125 L 115.53125 16.070312 C 115.53125 13.691406 113.597656 11.757812 111.214844 11.757812 L 93.222656 11.757812 L 93.777344 13.523438 L 92.378906 13.089844 L 93.777344 13.523438 L 115.53125 83.257812 Z M 108.132812 135.914062 L 87.679688 135.914062 L 84.859375 136.792969 L 101.71875 142.023438 C 103.992188 142.730469 106.414062 141.457031 107.121094 139.183594 Z M 111.21875 135.914062 Z M 111.222656 135.914062 C 111.222656 135.914062 111.222656 135.914062 111.21875 135.914062 Z M 111.230469 135.914062 L 111.226562 135.914062 Z M 111.230469 135.914062 Z M 111.230469 135.914062 Z M 111.234375 135.914062 Z M 111.234375 135.914062 Z M 111.238281 135.914062 Z M 111.253906 135.914062 L 111.25 135.914062 Z M 111.253906 135.914062 Z M 111.261719 135.914062 Z M 111.269531 135.914062 Z M 111.273438 135.914062 Z M 111.289062 135.914062 Z M 111.328125 135.914062 Z M 111.335938 135.914062 Z M 111.355469 135.914062 Z M 111.359375 135.914062 L 111.355469 135.914062 Z M 111.367188 135.914062 L 111.363281 135.914062 Z M 111.367188 135.914062 C 111.367188 135.914062 111.371094 135.914062 111.371094 135.914062 Z M 111.378906 135.914062 L 111.375 135.914062 Z M 111.378906 135.914062 Z M 111.382812 135.914062 Z M 111.382812 135.914062 Z M 111.386719 135.914062 Z M 111.386719 135.914062 Z M 111.386719 135.914062 Z M 111.390625 135.914062 Z M 111.402344 135.914062 Z M 111.414062 135.914062 Z M 111.417969 135.914062 Z M 111.421875 135.914062 Z M 111.425781 135.914062 C 111.421875 135.914062 111.421875 135.914062 111.421875 135.914062 C 111.421875 135.914062 111.421875 135.914062 111.425781 135.914062 Z M 111.429688 135.914062 C 111.425781 135.914062 111.425781 135.914062 111.425781 135.914062 C 111.425781 135.914062 111.425781 135.914062 111.429688 135.914062 Z M 111.433594 135.910156 Z M 111.4375 135.910156 L 111.433594 135.910156 Z M 111.441406 135.910156 Z M 111.445312 135.910156 Z M 111.445312 135.910156 Z M 111.445312 135.910156 Z M 111.449219 135.910156 L 111.445312 135.910156 Z M 111.453125 135.910156 Z M 111.457031 135.910156 Z M 111.457031 135.910156 Z M 111.464844 135.910156 L 111.460938 135.910156 Z M 111.476562 135.910156 Z M 111.480469 135.910156 Z M 111.484375 135.910156 Z M 111.484375 135.910156 Z M 111.488281 135.910156 Z M 111.488281 135.910156 Z M 111.5 135.910156 Z M 111.503906 135.910156 Z M 111.507812 135.910156 C 111.507812 135.910156 111.503906 135.910156 111.503906 135.910156 Z M 111.511719 135.910156 Z M 111.511719 135.910156 Z M 111.515625 135.910156 Z M 111.527344 135.910156 Z M 111.527344 135.910156 Z M 111.53125 135.910156 Z M 111.535156 135.910156 Z M 111.539062 135.910156 Z M 111.542969 135.910156 C 111.542969 135.910156 111.539062 135.910156 111.539062 135.910156 C 111.539062 135.910156 111.542969 135.910156 111.542969 135.910156 Z M 111.546875 135.910156 Z M 111.550781 135.90625 Z M 111.550781 135.90625 Z M 111.550781 135.90625 Z M 111.554688 135.90625 Z M 111.558594 135.90625 Z M 111.558594 135.90625 Z M 111.5625 135.90625 Z M 111.5625 135.90625 Z M 111.566406 135.90625 C 111.5625 135.90625 111.5625 135.90625 111.5625 135.90625 C 111.5625 135.90625 111.5625 135.90625 111.566406 135.90625 Z M 111.566406 135.90625 Z M 111.566406 135.90625 Z M 111.570312 135.90625 Z M 111.570312 135.90625 Z M 111.574219 135.90625 Z M 111.578125 135.90625 C 111.578125 135.90625 111.582031 135.90625 111.582031 135.90625 Z M 111.582031 135.90625 Z M 111.589844 135.90625 Z M 111.597656 135.90625 Z M 111.601562 135.90625 Z M 111.605469 135.90625 L 111.601562 135.90625 Z M 111.605469 135.90625 Z M 111.621094 135.90625 C 111.617188 135.90625 111.617188 135.90625 111.617188 135.90625 C 111.617188 135.90625 111.617188 135.90625 111.621094 135.90625 Z M 111.625 135.90625 C 111.625 135.90625 111.621094 135.90625 111.621094 135.90625 C 111.621094 135.90625 111.625 135.90625 111.625 135.90625 Z M 111.625 135.90625 Z M 111.640625 135.902344 Z M 111.648438 135.902344 Z M 111.652344 135.902344 Z M 111.660156 135.902344 Z M 111.664062 135.902344 Z M 111.664062 135.902344 Z M 111.667969 135.902344 Z M 111.667969 135.902344 Z M 111.667969 135.902344 Z M 111.675781 135.902344 C 111.671875 135.902344 111.671875 135.902344 111.671875 135.902344 C 111.671875 135.902344 111.671875 135.902344 111.675781 135.902344 Z M 111.675781 135.902344 Z M 111.679688 135.902344 Z M 111.679688 135.902344 Z M 111.679688 135.902344 Z M 111.683594 135.902344 Z M 111.683594 135.902344 Z M 111.6875 135.902344 Z M 111.6875 135.902344 Z M 111.695312 135.902344 C 111.691406 135.902344 111.691406 135.902344 111.6875 135.902344 C 111.691406 135.902344 111.691406 135.902344 111.695312 135.902344 Z M 111.699219 135.902344 C 111.699219 135.902344 111.695312 135.902344 111.695312 135.902344 C 111.695312 135.902344 111.699219 135.902344 111.699219 135.902344 Z M 111.699219 135.902344 Z M 111.703125 135.902344 L 111.699219 135.902344 Z M 111.703125 135.902344 Z M 111.703125 135.898438 Z M 111.707031 135.898438 Z M 111.71875 135.898438 Z M 111.722656 135.898438 Z M 111.726562 135.898438 L 111.730469 135.898438 Z M 111.734375 135.898438 Z M 111.738281 135.898438 L 111.734375 135.898438 Z M 111.738281 135.898438 Z M 111.742188 135.898438 Z M 111.746094 135.898438 C 111.746094 135.898438 111.746094 135.898438 111.742188 135.898438 Z M 111.746094 135.898438 Z M 111.75 135.898438 Z M 111.753906 135.898438 L 111.75 135.898438 Z M 111.757812 135.898438 Z M 111.894531 135.886719 Z M 111.898438 135.886719 Z M 111.898438 135.886719 Z M 111.898438 135.886719 Z M 111.902344 135.886719 Z M 111.910156 135.886719 Z M 111.925781 135.882812 Z M 111.929688 135.882812 C 111.929688 135.882812 111.925781 135.882812 111.925781 135.882812 C 111.925781 135.882812 111.929688 135.882812 111.929688 135.882812 Z M 111.933594 135.882812 Z M 111.933594 135.882812 Z M 111.949219 135.882812 Z M 111.960938 135.878906 Z M 111.964844 135.878906 Z M 111.96875 135.878906 Z M 111.972656 135.878906 Z M 111.972656 135.878906 Z M 111.976562 135.878906 C 111.976562 135.878906 111.976562 135.878906 111.972656 135.878906 C 111.976562 135.878906 111.976562 135.878906 111.976562 135.878906 Z M 111.988281 135.878906 Z M 111.992188 135.878906 C 111.992188 135.878906 111.992188 135.878906 111.988281 135.878906 C 111.992188 135.878906 111.992188 135.878906 111.992188 135.878906 Z M 111.992188 135.878906 L 111.996094 135.878906 C 111.992188 135.878906 111.992188 135.878906 111.992188 135.878906 Z M 112.011719 135.875 C 112.011719 135.875 112.007812 135.875 112.007812 135.875 C 112.007812 135.875 112.011719 135.875 112.011719 135.875 Z M 112.011719 135.875 Z M 112.015625 135.875 Z M 112.019531 135.875 Z M 112.019531 135.875 Z M 112.023438 135.875 Z M 112.023438 135.875 Z M 112.027344 135.875 C 112.027344 135.875 112.027344 135.875 112.023438 135.875 C 112.027344 135.875 112.027344 135.875 112.027344 135.875 Z M 112.027344 135.875 Z M 112.03125 135.875 Z M 112.03125 135.875 Z M 112.035156 135.871094 Z M 112.039062 135.871094 Z M 112.046875 135.871094 Z M 112.050781 135.871094 Z M 112.050781 135.871094 Z M 112.054688 135.871094 C 112.050781 135.871094 112.050781 135.871094 112.050781 135.871094 Z M 112.054688 135.871094 Z M 112.066406 135.871094 C 112.0625 135.871094 112.0625 135.871094 112.0625 135.871094 Z M 112.066406 135.871094 Z M 112.066406 135.871094 Z M 112.074219 135.867188 C 112.070312 135.871094 112.070312 135.871094 112.070312 135.871094 C 112.070312 135.871094 112.070312 135.871094 112.074219 135.867188 Z M 112.074219 135.867188 Z M 112.078125 135.867188 L 112.074219 135.867188 Z M 112.082031 135.867188 C 112.082031 135.867188 112.078125 135.867188 112.078125 135.867188 C 112.078125 135.867188 112.082031 135.867188 112.082031 135.867188 Z M 112.082031 135.867188 Z M 112.085938 135.867188 L 112.082031 135.867188 Z M 112.085938 135.867188 Z M 112.09375 135.867188 L 112.089844 135.867188 Z M 112.09375 135.867188 Z M 112.097656 135.867188 C 112.09375 135.867188 112.09375 135.867188 112.09375 135.867188 Z M 112.097656 135.867188 Z M 112.101562 135.867188 C 112.101562 135.867188 112.097656 135.867188 112.097656 135.867188 C 112.097656 135.867188 112.101562 135.867188 112.101562 135.867188 Z M 112.101562 135.867188 Z M 112.109375 135.863281 C 112.109375 135.863281 112.109375 135.863281 112.105469 135.867188 Z M 29.300781 123.515625 Z M 29.292969 123.515625 L 29.296875 123.515625 Z M 29.292969 123.515625 Z M 29.285156 123.511719 L 29.292969 123.515625 C 29.289062 123.515625 29.289062 123.511719 29.285156 123.511719 Z M 29.285156 123.511719 Z M 29.28125 123.511719 Z M 29.277344 123.511719 C 29.277344 123.511719 29.277344 123.511719 29.28125 123.511719 C 29.277344 123.511719 29.277344 123.511719 29.277344 123.511719 Z M 29.273438 123.507812 C 29.277344 123.507812 29.277344 123.507812 29.277344 123.511719 C 29.277344 123.507812 29.277344 123.507812 29.273438 123.507812 Z M 29.265625 123.507812 C 29.269531 123.507812 29.273438 123.507812 29.273438 123.507812 C 29.273438 123.507812 29.269531 123.507812 29.265625 123.507812 Z M 29.257812 123.503906 C 29.261719 123.503906 29.265625 123.503906 29.265625 123.507812 C 29.265625 123.503906 29.261719 123.503906 29.257812 123.503906 Z M 29.257812 123.503906 Z M 29.253906 123.503906 C 29.257812 123.503906 29.257812 123.503906 29.257812 123.503906 C 29.257812 123.503906 29.257812 123.503906 29.253906 123.503906 Z M 29.253906 123.503906 Z M 29.246094 123.5 C 29.25 123.5 29.25 123.5 29.253906 123.503906 C 29.25 123.5 29.25 123.5 29.246094 123.5 Z M 29.242188 123.5 C 29.242188 123.5 29.242188 123.5 29.246094 123.5 C 29.242188 123.5 29.242188 123.5 29.242188 123.5 Z M 29.238281 123.5 C 29.242188 123.5 29.242188 123.5 29.242188 123.5 C 29.242188 123.5 29.242188 123.5 29.238281 123.5 Z M 29.226562 123.492188 C 29.230469 123.496094 29.234375 123.496094 29.238281 123.496094 C 29.234375 123.496094 29.230469 123.496094 29.226562 123.492188 Z M 29.226562 123.492188 Z M 29.207031 123.488281 C 29.210938 123.488281 29.21875 123.492188 29.222656 123.492188 C 29.21875 123.492188 29.210938 123.488281 29.207031 123.488281 Z M 29.199219 123.484375 C 29.203125 123.484375 29.203125 123.488281 29.207031 123.488281 C 29.203125 123.488281 29.203125 123.484375 29.199219 123.484375 Z M 29.199219 123.484375 Z M 29.195312 123.484375 Z M 29.191406 123.480469 C 29.191406 123.480469 29.191406 123.484375 29.191406 123.484375 C 29.191406 123.484375 29.191406 123.480469 29.191406 123.480469 Z M 29.1875 123.480469 Z M 29.1875 123.480469 Z M 29.183594 123.480469 Z M 29.179688 123.480469 Z M 29.179688 123.480469 Z M 29.179688 123.476562 Z M 29.171875 123.476562 Z M 29.167969 123.476562 L 29.171875 123.476562 Z M 29.167969 123.476562 Z M 29.167969 123.472656 Z M 29.164062 123.472656 Z M 29.15625 123.472656 C 29.160156 123.472656 29.160156 123.472656 29.160156 123.472656 C 29.160156 123.472656 29.160156 123.472656 29.15625 123.472656 Z M 29.15625 123.472656 Z M 29.15625 123.472656 Z M 29.144531 123.46875 Z M 29.140625 123.464844 C 29.140625 123.464844 29.140625 123.464844 29.144531 123.464844 C 29.140625 123.464844 29.140625 123.464844 29.140625 123.464844 Z M 29.132812 123.464844 C 29.132812 123.464844 29.136719 123.464844 29.136719 123.464844 C 29.136719 123.464844 29.132812 123.464844 29.132812 123.464844 Z M 29.128906 123.460938 Z M 29.128906 123.460938 Z M 29.128906 123.460938 Z M 29.125 123.460938 Z M 29.125 123.460938 Z M 29.125 123.460938 Z M 29.117188 123.457031 C 29.117188 123.457031 29.121094 123.460938 29.121094 123.460938 C 29.121094 123.460938 29.117188 123.457031 29.117188 123.457031 Z M 29.113281 123.457031 C 29.113281 123.457031 29.117188 123.457031 29.117188 123.457031 C 29.117188 123.457031 29.113281 123.457031 29.113281 123.457031 Z M 29.113281 123.457031 Z M 29.105469 123.453125 Z M 29.101562 123.453125 Z M 29.101562 123.453125 Z M 29.097656 123.453125 Z M 29.09375 123.449219 C 29.09375 123.449219 29.09375 123.449219 29.097656 123.449219 C 29.09375 123.449219 29.09375 123.449219 29.09375 123.449219 Z M 29.082031 123.445312 C 29.085938 123.449219 29.089844 123.449219 29.089844 123.449219 C 29.089844 123.449219 29.085938 123.449219 29.082031 123.445312 Z M 29.078125 123.445312 C 29.078125 123.445312 29.082031 123.445312 29.082031 123.445312 C 29.082031 123.445312 29.078125 123.445312 29.078125 123.445312 Z M 29.074219 123.445312 C 29.074219 123.445312 29.074219 123.445312 29.078125 123.445312 C 29.074219 123.445312 29.074219 123.445312 29.074219 123.445312 Z M 29.074219 123.445312 Z M 29.070312 123.441406 L 29.074219 123.445312 C 29.074219 123.441406 29.074219 123.441406 29.070312 123.441406 Z M 29.066406 123.441406 C 29.066406 123.441406 29.070312 123.441406 29.070312 123.441406 C 29.070312 123.441406 29.066406 123.441406 29.066406 123.441406 Z M 29.066406 123.441406 Z M 29.0625 123.441406 Z M 29.0625 123.4375 Z M 29.0625 123.4375 Z M 29.058594 123.4375 Z M 29.058594 123.4375 Z M 29.054688 123.4375 Z M 29.054688 123.4375 Z M 29.050781 123.433594 C 29.050781 123.4375 29.050781 123.4375 29.054688 123.4375 C 29.050781 123.4375 29.050781 123.4375 29.050781 123.433594 Z M 29.050781 123.433594 Z M 29.035156 123.429688 Z M 29.03125 123.429688 L 29.035156 123.429688 C 29.03125 123.429688 29.03125 123.429688 29.03125 123.429688 Z M 29.027344 123.425781 L 29.027344 123.429688 C 29.027344 123.425781 29.027344 123.425781 29.027344 123.425781 Z M 29.023438 123.425781 C 29.023438 123.425781 29.027344 123.425781 29.027344 123.425781 C 29.027344 123.425781 29.023438 123.425781 29.023438 123.425781 Z M 29.019531 123.425781 L 29.023438 123.425781 C 29.023438 123.425781 29.023438 123.425781 29.019531 123.425781 Z M 29.019531 123.425781 Z M 29.011719 123.421875 C 29.011719 123.421875 29.015625 123.421875 29.019531 123.425781 C 29.015625 123.421875 29.011719 123.421875 29.011719 123.421875 Z M 29.007812 123.421875 Z M 29.003906 123.417969 C 29.003906 123.417969 29.003906 123.417969 29.007812 123.417969 C 29.003906 123.417969 29.003906 123.417969 29.003906 123.417969 Z M 29 123.417969 C 29 123.417969 29 123.417969 29.003906 123.417969 C 29 123.417969 29 123.417969 29 123.417969 Z M 29 123.417969 Z M 29 123.417969 Z M 28.996094 123.417969 Z M 28.996094 123.414062 Z M 28.988281 123.414062 C 28.992188 123.414062 28.992188 123.414062 28.992188 123.414062 C 28.992188 123.414062 28.992188 123.414062 28.988281 123.414062 Z M 28.984375 123.414062 C 28.988281 123.414062 28.988281 123.414062 28.988281 123.414062 C 28.988281 123.414062 28.988281 123.414062 28.984375 123.414062 Z M 28.980469 123.410156 C 28.980469 123.410156 28.984375 123.410156 28.984375 123.414062 C 28.984375 123.410156 28.980469 123.410156 28.980469 123.410156 Z M 28.976562 123.410156 C 28.976562 123.410156 28.976562 123.410156 28.980469 123.410156 C 28.976562 123.410156 28.976562 123.410156 28.976562 123.410156 Z M 28.972656 123.40625 Z M 28.96875 123.40625 Z M 28.964844 123.40625 C 28.964844 123.40625 28.964844 123.40625 28.96875 123.40625 C 28.964844 123.40625 28.964844 123.40625 28.964844 123.40625 Z M 28.957031 123.402344 C 28.960938 123.402344 28.960938 123.402344 28.964844 123.40625 C 28.960938 123.402344 28.960938 123.402344 28.957031 123.402344 Z M 28.953125 123.402344 C 28.957031 123.402344 28.957031 123.402344 28.957031 123.402344 C 28.957031 123.402344 28.957031 123.402344 28.953125 123.402344 Z M 28.914062 123.386719 C 28.921875 123.390625 28.929688 123.390625 28.933594 123.394531 C 28.941406 123.394531 28.949219 123.398438 28.953125 123.402344 C 28.941406 123.398438 28.929688 123.390625 28.914062 123.386719 Z M 28.914062 123.386719 Z M 28.867188 123.371094 C 28.875 123.371094 28.882812 123.375 28.890625 123.378906 C 28.898438 123.378906 28.90625 123.382812 28.914062 123.386719 C 28.90625 123.382812 28.898438 123.378906 28.890625 123.378906 C 28.882812 123.375 28.875 123.371094 28.867188 123.371094 Z M 28.863281 123.367188 C 28.863281 123.367188 28.867188 123.367188 28.867188 123.367188 C 28.867188 123.367188 28.863281 123.367188 28.863281 123.367188 Z M 28.84375 123.359375 C 28.851562 123.363281 28.859375 123.367188 28.863281 123.367188 C 28.859375 123.367188 28.851562 123.363281 28.84375 123.359375 Z M 28.835938 123.359375 C 28.839844 123.359375 28.839844 123.359375 28.84375 123.359375 C 28.839844 123.359375 28.839844 123.359375 28.835938 123.359375 Z M 28.832031 123.355469 C 28.832031 123.355469 28.832031 123.355469 28.835938 123.355469 C 28.832031 123.355469 28.832031 123.355469 28.832031 123.355469 Z M 28.828125 123.355469 L 28.832031 123.355469 Z M 28.828125 123.355469 Z M 28.828125 123.355469 Z M 28.824219 123.351562 C 28.824219 123.355469 28.828125 123.355469 28.828125 123.355469 C 28.828125 123.355469 28.824219 123.355469 28.824219 123.351562 Z M 28.820312 123.351562 Z M 28.816406 123.351562 C 28.816406 123.351562 28.820312 123.351562 28.820312 123.351562 C 28.820312 123.351562 28.816406 123.351562 28.816406 123.351562 Z M 28.816406 123.351562 Z M 28.808594 123.347656 C 28.808594 123.347656 28.808594 123.347656 28.8125 123.347656 C 28.808594 123.347656 28.808594 123.347656 28.808594 123.347656 Z M 28.804688 123.347656 Z M 28.804688 123.34375 C 28.804688 123.34375 28.804688 123.34375 28.804688 123.347656 C 28.804688 123.34375 28.804688 123.34375 28.804688 123.34375 Z M 28.796875 123.34375 C 28.796875 123.34375 28.800781 123.34375 28.804688 123.34375 C 28.800781 123.34375 28.796875 123.34375 28.796875 123.34375 Z M 28.796875 123.34375 Z M 28.792969 123.339844 Z M 28.785156 123.339844 C 28.789062 123.339844 28.789062 123.339844 28.789062 123.339844 C 28.789062 123.339844 28.789062 123.339844 28.785156 123.339844 Z M 28.78125 123.335938 C 28.78125 123.335938 28.78125 123.335938 28.785156 123.335938 C 28.78125 123.335938 28.78125 123.335938 28.78125 123.335938 Z M 28.773438 123.332031 C 28.773438 123.332031 28.777344 123.335938 28.777344 123.335938 C 28.777344 123.335938 28.773438 123.332031 28.773438 123.332031 Z M 28.769531 123.332031 Z M 28.769531 123.332031 Z M 28.765625 123.332031 Z M 28.765625 123.328125 Z M 28.761719 123.328125 Z M 28.753906 123.324219 C 28.757812 123.328125 28.757812 123.328125 28.761719 123.328125 C 28.757812 123.328125 28.757812 123.328125 28.753906 123.324219 Z M 28.75 123.324219 Z M 28.746094 123.324219 Z M 28.746094 123.324219 Z M 28.746094 123.320312 L 28.746094 123.324219 Z M 28.730469 123.316406 C 28.734375 123.320312 28.738281 123.320312 28.742188 123.320312 C 28.738281 123.320312 28.734375 123.320312 28.730469 123.316406 Z M 28.730469 123.316406 Z M 28.726562 123.316406 C 28.726562 123.316406 28.730469 123.316406 28.730469 123.316406 C 28.730469 123.316406 28.726562 123.316406 28.726562 123.316406 Z M 28.726562 123.316406 Z M 28.722656 123.3125 C 28.722656 123.3125 28.722656 123.3125 28.726562 123.316406 C 28.722656 123.3125 28.722656 123.3125 28.722656 123.3125 Z M 28.71875 123.3125 L 28.722656 123.3125 Z M 28.71875 123.3125 Z M 28.71875 123.3125 Z M 28.710938 123.308594 C 28.714844 123.308594 28.714844 123.308594 28.714844 123.3125 C 28.714844 123.308594 28.714844 123.308594 28.710938 123.308594 Z M 28.710938 123.308594 Z M 28.707031 123.308594 L 28.710938 123.308594 Z M 28.707031 123.308594 Z M 28.695312 123.304688 C 28.699219 123.304688 28.703125 123.304688 28.707031 123.308594 C 28.703125 123.304688 28.699219 123.304688 28.695312 123.304688 Z M 28.695312 123.300781 L 28.695312 123.304688 C 28.695312 123.300781 28.695312 123.300781 28.695312 123.300781 Z M 28.691406 123.300781 Z M 28.691406 123.300781 Z M 28.65625 123.285156 C 28.660156 123.289062 28.667969 123.292969 28.671875 123.292969 C 28.679688 123.296875 28.683594 123.296875 28.6875 123.300781 C 28.683594 123.296875 28.679688 123.296875 28.671875 123.292969 C 28.667969 123.292969 28.660156 123.289062 28.65625 123.285156 Z M 28.652344 123.285156 C 28.652344 123.285156 28.65625 123.285156 28.65625 123.285156 C 28.65625 123.285156 28.652344 123.285156 28.652344 123.285156 Z M 28.648438 123.285156 C 28.648438 123.285156 28.652344 123.285156 28.652344 123.285156 C 28.652344 123.285156 28.648438 123.285156 28.648438 123.285156 Z M 28.648438 123.28125 C 28.648438 123.28125 28.648438 123.285156 28.648438 123.285156 C 28.648438 123.285156 28.648438 123.28125 28.648438 123.28125 Z M 28.644531 123.28125 Z M 28.644531 123.28125 Z M 28.640625 123.28125 Z M 28.636719 123.277344 L 28.636719 123.28125 Z M 28.636719 123.277344 Z M 28.632812 123.277344 Z M 28.628906 123.273438 Z M 28.625 123.273438 Z M 28.625 123.273438 Z M 28.621094 123.273438 Z M 28.613281 123.269531 L 28.617188 123.269531 Z M 28.609375 123.269531 Z M 28.609375 123.265625 Z M 28.609375 123.265625 Z M 28.597656 123.261719 C 28.601562 123.265625 28.605469 123.265625 28.605469 123.265625 C 28.605469 123.265625 28.601562 123.265625 28.597656 123.261719 Z M 28.59375 123.261719 C 28.59375 123.261719 28.59375 123.261719 28.597656 123.261719 C 28.59375 123.261719 28.59375 123.261719 28.59375 123.261719 Z M 28.59375 123.261719 Z M 28.589844 123.257812 L 28.589844 123.261719 C 28.589844 123.257812 28.589844 123.257812 28.589844 123.257812 Z M 28.585938 123.257812 Z M 28.585938 123.257812 Z M 28.582031 123.257812 Z M 28.578125 123.253906 L 28.582031 123.253906 C 28.582031 123.253906 28.578125 123.253906 28.578125 123.253906 Z M 28.570312 123.25 Z M 28.566406 123.25 Z M 28.558594 123.246094 L 28.5625 123.246094 Z M 28.558594 123.246094 Z M 28.554688 123.246094 Z M 28.550781 123.242188 L 28.554688 123.242188 Z M 28.550781 123.242188 Z M 28.550781 123.242188 Z M 28.542969 123.238281 Z M 28.539062 123.238281 Z M 28.535156 123.234375 C 28.535156 123.238281 28.535156 123.238281 28.535156 123.238281 C 28.535156 123.238281 28.535156 123.238281 28.535156 123.234375 Z M 28.53125 123.234375 Z M 28.527344 123.234375 C 28.53125 123.234375 28.53125 123.234375 28.53125 123.234375 C 28.53125 123.234375 28.53125 123.234375 28.527344 123.234375 Z M 28.527344 123.234375 Z M 28.515625 123.226562 C 28.515625 123.230469 28.519531 123.230469 28.519531 123.230469 C 28.519531 123.230469 28.515625 123.230469 28.515625 123.226562 Z M 28.515625 123.226562 Z M 28.511719 123.226562 Z M 28.511719 123.226562 Z M 28.507812 123.222656 Z M 28.503906 123.222656 C 28.503906 123.222656 28.503906 123.222656 28.507812 123.222656 C 28.503906 123.222656 28.503906 123.222656 28.503906 123.222656 Z M 28.503906 123.222656 Z M 28.5 123.222656 Z M 28.496094 123.21875 Z M 28.496094 123.21875 Z M 28.492188 123.21875 Z M 28.492188 123.21875 Z M 28.488281 123.214844 Z M 28.480469 123.214844 Z M 28.476562 123.210938 Z M 28.46875 123.207031 Z M 28.859375 110.382812 L 27.578125 114.503906 C 27.117188 115.992188 27.503906 117.546875 28.46875 118.636719 C 28.972656 119.210938 29.636719 119.660156 30.421875 119.902344 L 31.945312 120.375 L 32.242188 121.332031 L 30.015625 114.199219 Z M 119.316406 95.386719 L 120.015625 97.625 L 118.039062 103.992188 L 140.234375 32.460938 C 140.941406 30.183594 139.664062 27.765625 137.390625 27.058594 L 119.316406 21.449219 Z M 72.023438 6.777344 L 66.09375 4.9375 C 63.820312 4.230469 61.398438 5.503906 60.695312 7.777344 L 60.632812 7.972656 L 68.183594 7.972656 Z M 72.023438 6.777344 " fill-opacity="1" fill-rule="evenodd"/><path stroke-linecap="butt" transform="matrix(0.746528, 0, 0, 0.746528, 145.179754, 65.911181)" fill="none" stroke-linejoin="miter" d="M 41.577818 38.552117 L 41.577818 37.385256 C 41.577818 27.914326 38.056306 23.178861 31.00805 23.178861 C 26.97898 23.178861 24.064446 25.025954 22.264445 28.709675 C 20.485376 32.38293 19.595841 37.803861 19.595841 44.977698 C 19.595841 52.083512 20.710376 57.368396 22.944678 60.821884 C 25.17898 64.275373 28.444097 66.002117 32.740027 66.002117 C 34.974329 66.002117 37.454562 65.478861 40.17026 64.427117 C 42.89119 63.364908 45.852818 61.680024 49.055144 59.367233 C 50.645841 60.460838 52.131888 61.952117 53.508051 63.846303 C 54.899911 65.735257 55.747586 67.540489 56.061539 69.256768 C 54.59119 70.664326 52.885376 71.993396 50.928399 73.243978 C 48.976655 74.494559 46.857469 75.572466 44.576074 76.477699 C 42.310376 77.367233 39.94526 78.078861 37.475492 78.60735 C 35.021422 79.156768 32.546422 79.428861 30.04526 79.428861 C 25.126655 79.428861 20.961538 78.492233 17.555143 76.618978 C 14.164445 74.724792 11.427817 72.213164 9.350492 69.068396 C 7.273166 65.928861 5.766189 62.313163 4.829562 58.221303 C 3.908631 54.12421 3.442934 49.864907 3.442934 45.443396 C 3.442934 39.692814 4.165027 34.664326 5.60398 30.352698 C 7.053399 26.025372 9.010376 22.42014 11.459213 19.547465 C 13.92898 16.65386 16.827818 14.492814 20.155725 13.05386 C 23.483632 11.614907 27.036539 10.898046 30.819678 10.898046 C 34.665608 10.898046 38.150492 11.41607 41.274329 12.446884 C 44.413864 13.462 47.087702 14.869558 49.290609 16.664326 C 51.509213 18.443395 53.204562 20.552116 54.376655 22.990488 C 55.564446 25.428861 56.155725 28.055605 56.155725 30.865489 C 56.155725 36.553279 53.24119 39.399791 47.41212 39.399791 C 45.695841 39.399791 43.74933 39.117233 41.577818 38.552117 Z M 81.690609 64.264908 C 79.97433 64.264908 78.692353 64.233512 77.844679 64.170722 L 73.721423 78.094559 C 72.188283 78.481768 70.048167 78.680606 67.301074 78.680606 C 64.22433 78.680606 61.723167 78.330024 59.797586 77.623629 L 59.331888 76.84921 L 80.450493 12.420721 C 82.946423 12.049209 85.860958 11.860837 89.188865 11.860837 C 92.956307 11.860837 95.965028 12.085837 98.215028 12.54107 L 118.930726 77.037582 C 116.696424 78.256768 114.174331 78.868978 111.364447 78.868978 C 108.03654 78.868978 105.697586 78.288164 104.352819 77.131768 C 103.013284 75.975373 101.856889 73.772466 100.883633 70.523047 L 99.083633 64.170722 C 98.235958 64.233512 96.985377 64.264908 95.331888 64.264908 Z M 81.408051 52.172466 L 85.253981 52.07828 L 92.260377 52.07828 C 92.57433 52.07828 93.128981 52.093977 93.92433 52.125373 C 94.735377 52.156768 95.331888 52.172466 95.708633 52.172466 L 94.08654 46.217814 C 92.542935 40.843977 90.77433 34.250954 88.791191 26.438744 L 88.231307 26.438744 C 87.713284 29.201535 86.174912 35.318396 83.610958 44.789326 Z M 174.040029 32.696884 C 174.040029 34.805605 173.720843 36.804442 173.077238 38.693396 C 172.438866 40.587582 171.585959 42.282931 170.52375 43.779442 C 169.477238 45.281186 168.237122 46.594559 166.798169 47.719559 C 165.359215 48.828861 163.878401 49.671303 162.345262 50.252117 C 165.673169 51.471303 168.132471 54.412001 169.728401 59.084675 L 172.611541 67.242233 C 173.705145 70.444559 175.306308 72.814908 177.415029 74.342815 C 176.447006 75.624792 175.00282 76.702699 173.077238 77.576536 C 171.15689 78.439908 169.048169 78.868978 166.751076 78.868978 C 164.453982 78.868978 162.664448 78.209675 161.382471 76.896303 C 160.100494 75.588164 158.912703 73.296303 157.819099 70.031187 L 154.376075 59.95328 C 153.674913 58.032931 152.72782 56.562582 151.540029 55.547466 C 150.352238 54.516652 148.573168 53.998628 146.197587 53.998628 L 142.283633 53.998628 L 142.283633 78.000373 C 140.222005 78.392815 137.658052 78.58642 134.597005 78.58642 C 131.515029 78.58642 128.987703 78.392815 126.999331 78.000373 L 126.999331 12.912581 L 127.679563 12.232349 C 133.241773 12.106767 137.930145 12.017814 141.74468 11.955023 C 145.553982 11.892232 148.547006 11.860837 150.718517 11.860837 C 154.234796 11.860837 157.431889 12.289907 160.304564 13.148046 C 163.198169 14.006186 165.647006 15.30386 167.666773 17.04107 C 169.681308 18.773047 171.240611 20.955023 172.355145 23.576535 C 173.480145 26.203279 174.040029 29.243396 174.040029 32.696884 Z M 142.283633 23.367233 L 142.283633 42.188745 C 145.156308 42.188745 147.61561 42.141652 149.666773 42.047465 C 151.712703 41.953279 153.360959 41.571303 154.61154 40.896303 C 155.862122 40.226535 156.803982 39.279442 157.447587 38.060256 C 158.085959 36.846303 158.405145 35.088163 158.405145 32.79107 C 158.405145 26.569558 155.401657 23.461419 149.384215 23.461419 C 147.898168 23.461419 146.563866 23.461419 145.376075 23.461419 C 144.203982 23.461419 143.173168 23.430023 142.283633 23.367233 Z M 228.484797 73.782931 C 226.438867 75.436419 223.749332 76.655606 220.421425 77.435257 C 217.093518 78.204443 213.41503 78.58642 209.38596 78.58642 C 207.40282 78.58642 204.535378 78.544559 200.783634 78.471303 C 197.03189 78.408513 192.343518 78.314326 186.718518 78.188745 L 186.043518 77.529443 L 186.043518 12.912581 L 186.718518 12.232349 C 190.438867 12.106767 194.300495 12.017814 198.298169 11.955023 C 202.301076 11.892232 206.50282 11.860837 210.908634 11.860837 C 216.345262 11.860837 220.887123 12.724209 224.523751 14.461419 C 228.181309 16.177698 231.095844 18.548047 233.267356 21.562 C 235.454565 24.560256 236.992937 28.092233 237.882472 32.15793 C 238.777239 36.218396 239.222007 40.587582 239.222007 45.260256 C 239.222007 51.664907 238.484216 57.200954 237.0191 61.873629 C 235.548751 66.546303 232.707472 70.517815 228.484797 73.782931 Z M 210.814448 66.588164 C 219.26503 66.588164 223.492937 59.477117 223.492937 45.260256 C 223.492937 30.99107 219.26503 23.859093 210.814448 23.859093 C 208.768518 23.859093 206.95282 23.859093 205.37782 23.859093 C 203.813285 23.859093 202.463285 23.827698 201.322588 23.764907 L 201.322588 66.677117 C 202.463285 66.619559 203.813285 66.588164 205.37782 66.588164 C 206.95282 66.588164 208.768518 66.588164 210.814448 66.588164 Z M 244.213867 72.32828 C 244.417937 70.219559 245.072007 68.110838 246.181309 66.002117 C 247.306309 63.888163 248.635379 62.166652 250.168519 60.821884 C 257.028402 64.976536 263.52724 67.053861 269.665031 67.053861 C 272.354565 67.053861 274.322007 66.446884 275.572589 65.227698 C 276.82317 64.008512 277.445845 62.506768 277.445845 60.727698 C 277.445845 57.708512 275.43131 55.343396 271.40224 53.627117 L 260.058054 48.818396 C 255.65224 46.835256 252.261542 44.454442 249.885961 41.670721 C 247.526077 38.876535 246.348751 35.334093 246.348751 31.053861 C 246.348751 28.118396 246.934798 25.428861 248.101658 22.990488 C 249.289449 20.552116 250.953402 18.443395 253.098751 16.664326 C 255.254565 14.869558 257.797589 13.477698 260.738286 12.493977 C 263.673751 11.494558 266.938868 10.992232 270.533635 10.992232 C 277.691775 10.992232 284.917938 12.813163 292.212124 16.455023 C 291.903403 21.389326 290.176659 25.235256 287.031891 27.982349 C 280.501659 24.842814 274.745845 23.273047 269.759217 23.273047 C 267.200496 23.273047 265.274914 23.853861 263.992937 25.010256 C 262.710961 26.166651 262.072589 27.474791 262.072589 28.94514 C 262.072589 31.446303 263.961542 33.460837 267.744682 34.993977 L 279.251077 39.891652 C 284.127821 41.937582 287.759217 44.564326 290.150496 47.766652 C 292.557473 50.968977 293.760961 54.678861 293.760961 58.896303 C 293.760961 61.899791 293.211543 64.646884 292.117938 67.148047 C 291.040031 69.64921 289.42317 71.810257 287.267356 73.641652 C 285.12724 75.452117 282.453403 76.875373 279.251077 77.906187 C 276.064449 78.921303 272.32317 79.428861 268.02724 79.428861 C 259.712705 79.428861 251.774914 77.063745 244.213867 72.32828 Z M 244.213867 72.32828 " stroke="#801d00" stroke-width="2.64" stroke-opacity="1" stroke-miterlimit="4"/><g fill="#ff501c" fill-opacity="1"><g transform="translate(145.179754, 124.140347)"><g><path d="M 31.03125 -29.453125 L 31.03125 -30.3125 C 31.03125 -37.382812 28.40625 -40.921875 23.15625 -40.921875 C 20.144531 -40.921875 17.96875 -39.546875 16.625 -36.796875 C 15.289062 -34.054688 14.625 -30.007812 14.625 -24.65625 C 14.625 -19.351562 15.457031 -15.410156 17.125 -12.828125 C 18.800781 -10.242188 21.238281 -8.953125 24.4375 -8.953125 C 26.113281 -8.953125 27.96875 -9.347656 30 -10.140625 C 32.03125 -10.929688 34.238281 -12.1875 36.625 -13.90625 C 37.820312 -13.09375 38.929688 -11.976562 39.953125 -10.5625 C 40.984375 -9.15625 41.617188 -7.804688 41.859375 -6.515625 C 40.753906 -5.472656 39.472656 -4.484375 38.015625 -3.546875 C 36.566406 -2.617188 34.992188 -1.816406 33.296875 -1.140625 C 31.597656 -0.472656 29.828125 0.0625 27.984375 0.46875 C 26.148438 0.875 24.300781 1.078125 22.4375 1.078125 C 18.757812 1.078125 15.648438 0.375 13.109375 -1.03125 C 10.578125 -2.445312 8.535156 -4.320312 6.984375 -6.65625 C 5.429688 -9 4.304688 -11.695312 3.609375 -14.75 C 2.921875 -17.8125 2.578125 -20.992188 2.578125 -24.296875 C 2.578125 -28.597656 3.113281 -32.359375 4.1875 -35.578125 C 5.269531 -38.804688 6.726562 -41.492188 8.5625 -43.640625 C 10.40625 -45.796875 12.566406 -47.410156 15.046875 -48.484375 C 17.535156 -49.554688 20.1875 -50.09375 23 -50.09375 C 25.875 -50.09375 28.476562 -49.710938 30.8125 -48.953125 C 33.15625 -48.191406 35.148438 -47.140625 36.796875 -45.796875 C 38.453125 -44.460938 39.71875 -42.882812 40.59375 -41.0625 C 41.476562 -39.25 41.921875 -37.289062 41.921875 -35.1875 C 41.921875 -30.9375 39.75 -28.8125 35.40625 -28.8125 C 34.113281 -28.8125 32.65625 -29.023438 31.03125 -29.453125 Z M 31.03125 -29.453125 "/></g></g></g><g fill="#ff501c" fill-opacity="1"><g transform="translate(188.824734, 124.140347)"><g><path d="M 17.34375 -10.25 C 16.050781 -10.25 15.097656 -10.273438 14.484375 -10.328125 L 11.390625 0.078125 C 10.242188 0.359375 8.644531 0.5 6.59375 0.5 C 4.300781 0.5 2.4375 0.238281 1 -0.28125 L 0.640625 -0.859375 L 16.40625 -48.953125 C 18.269531 -49.234375 20.445312 -49.375 22.9375 -49.375 C 25.75 -49.375 27.992188 -49.207031 29.671875 -48.875 L 45.15625 -0.71875 C 43.476562 0.1875 41.585938 0.640625 39.484375 0.640625 C 37.003906 0.640625 35.257812 0.210938 34.25 -0.640625 C 33.25 -1.503906 32.390625 -3.15625 31.671875 -5.59375 L 30.3125 -10.328125 C 29.695312 -10.273438 28.765625 -10.25 27.515625 -10.25 Z M 17.125 -19.28125 L 20 -19.34375 L 25.234375 -19.34375 C 25.472656 -19.34375 25.890625 -19.332031 26.484375 -19.3125 C 27.078125 -19.289062 27.519531 -19.28125 27.8125 -19.28125 L 26.59375 -23.71875 C 25.445312 -27.738281 24.128906 -32.660156 22.640625 -38.484375 L 22.21875 -38.484375 C 21.832031 -36.429688 20.6875 -31.867188 18.78125 -24.796875 Z M 17.125 -19.28125 "/></g></g></g><g fill="#ff501c" fill-opacity="1"><g transform="translate(234.548045, 124.140347)"><g><path d="M 40.5625 -33.828125 C 40.5625 -32.253906 40.320312 -30.757812 39.84375 -29.34375 C 39.375 -27.9375 38.742188 -26.671875 37.953125 -25.546875 C 37.160156 -24.421875 36.226562 -23.441406 35.15625 -22.609375 C 34.082031 -21.773438 32.972656 -21.144531 31.828125 -20.71875 C 34.304688 -19.800781 36.144531 -17.601562 37.34375 -14.125 L 39.484375 -8.03125 C 40.296875 -5.632812 41.492188 -3.863281 43.078125 -2.71875 C 42.359375 -1.769531 41.28125 -0.972656 39.84375 -0.328125 C 38.414062 0.316406 36.84375 0.640625 35.125 0.640625 C 33.40625 0.640625 32.066406 0.148438 31.109375 -0.828125 C 30.148438 -1.804688 29.265625 -3.515625 28.453125 -5.953125 L 25.875 -13.46875 C 25.34375 -14.90625 24.632812 -16.003906 23.75 -16.765625 C 22.875 -17.535156 21.550781 -17.921875 19.78125 -17.921875 L 16.84375 -17.921875 L 16.84375 0 C 15.3125 0.289062 13.398438 0.4375 11.109375 0.4375 C 8.816406 0.4375 6.929688 0.289062 5.453125 0 L 5.453125 -48.59375 L 5.953125 -49.09375 C 10.109375 -49.1875 13.609375 -49.253906 16.453125 -49.296875 C 19.296875 -49.347656 21.53125 -49.375 23.15625 -49.375 C 25.78125 -49.375 28.164062 -49.050781 30.3125 -48.40625 C 32.46875 -47.769531 34.296875 -46.804688 35.796875 -45.515625 C 37.304688 -44.222656 38.476562 -42.597656 39.3125 -40.640625 C 40.144531 -38.679688 40.5625 -36.410156 40.5625 -33.828125 Z M 16.84375 -40.78125 L 16.84375 -26.734375 C 18.988281 -26.734375 20.828125 -26.769531 22.359375 -26.84375 C 23.890625 -26.914062 25.117188 -27.203125 26.046875 -27.703125 C 26.984375 -28.203125 27.691406 -28.90625 28.171875 -29.8125 C 28.648438 -30.71875 28.890625 -32.03125 28.890625 -33.75 C 28.890625 -38.382812 26.640625 -40.703125 22.140625 -40.703125 C 21.046875 -40.703125 20.054688 -40.703125 19.171875 -40.703125 C 18.285156 -40.703125 17.507812 -40.726562 16.84375 -40.78125 Z M 16.84375 -40.78125 "/></g></g></g><g fill="#ff501c" fill-opacity="1"><g transform="translate(278.623028, 124.140347)"><g><path d="M 37.125 -3.15625 C 35.59375 -1.914062 33.582031 -1.003906 31.09375 -0.421875 C 28.613281 0.148438 25.867188 0.4375 22.859375 0.4375 C 21.378906 0.4375 19.238281 0.410156 16.4375 0.359375 C 13.644531 0.304688 10.148438 0.234375 5.953125 0.140625 L 5.453125 -0.359375 L 5.453125 -48.59375 L 5.953125 -49.09375 C 8.722656 -49.1875 11.597656 -49.253906 14.578125 -49.296875 C 17.566406 -49.347656 20.710938 -49.375 24.015625 -49.375 C 28.078125 -49.375 31.46875 -48.726562 34.1875 -47.4375 C 36.90625 -46.15625 39.078125 -44.390625 40.703125 -42.140625 C 42.328125 -39.898438 43.472656 -37.257812 44.140625 -34.21875 C 44.816406 -31.1875 45.15625 -27.925781 45.15625 -24.4375 C 45.15625 -19.65625 44.601562 -15.519531 43.5 -12.03125 C 42.40625 -8.550781 40.28125 -5.59375 37.125 -3.15625 Z M 23.9375 -8.53125 C 30.25 -8.53125 33.40625 -13.832031 33.40625 -24.4375 C 33.40625 -35.09375 30.25 -40.421875 23.9375 -40.421875 C 22.40625 -40.421875 21.054688 -40.421875 19.890625 -40.421875 C 18.722656 -40.421875 17.707031 -40.445312 16.84375 -40.5 L 16.84375 -8.453125 C 17.707031 -8.503906 18.722656 -8.53125 19.890625 -8.53125 C 21.054688 -8.53125 22.40625 -8.53125 23.9375 -8.53125 Z M 23.9375 -8.53125 "/></g></g></g><g fill="#ff501c" fill-opacity="1"><g transform="translate(326.42467, 124.140347)"><g><path d="M 1.078125 -4.234375 C 1.222656 -5.804688 1.710938 -7.378906 2.546875 -8.953125 C 3.378906 -10.535156 4.367188 -11.828125 5.515625 -12.828125 C 10.628906 -9.722656 15.476562 -8.171875 20.0625 -8.171875 C 22.070312 -8.171875 23.539062 -8.625 24.46875 -9.53125 C 25.40625 -10.4375 25.875 -11.5625 25.875 -12.90625 C 25.875 -15.144531 24.367188 -16.910156 21.359375 -18.203125 L 12.90625 -21.78125 C 9.601562 -23.269531 7.066406 -25.050781 5.296875 -27.125 C 3.535156 -29.207031 2.65625 -31.847656 2.65625 -35.046875 C 2.65625 -37.242188 3.09375 -39.25 3.96875 -41.0625 C 4.851562 -42.882812 6.097656 -44.460938 7.703125 -45.796875 C 9.304688 -47.140625 11.207031 -48.179688 13.40625 -48.921875 C 15.601562 -49.660156 18.039062 -50.03125 20.71875 -50.03125 C 26.0625 -50.03125 31.457031 -48.664062 36.90625 -45.9375 C 36.664062 -42.257812 35.378906 -39.394531 33.046875 -37.34375 C 28.171875 -39.6875 23.867188 -40.859375 20.140625 -40.859375 C 18.222656 -40.859375 16.785156 -40.425781 15.828125 -39.5625 C 14.878906 -38.695312 14.40625 -37.71875 14.40625 -36.625 C 14.40625 -34.757812 15.816406 -33.253906 18.640625 -32.109375 L 27.234375 -28.453125 C 30.867188 -26.921875 33.582031 -24.960938 35.375 -22.578125 C 37.164062 -20.191406 38.0625 -17.421875 38.0625 -14.265625 C 38.0625 -12.015625 37.65625 -9.957031 36.84375 -8.09375 C 36.03125 -6.226562 34.820312 -4.613281 33.21875 -3.25 C 31.613281 -1.894531 29.617188 -0.832031 27.234375 -0.0625 C 24.847656 0.695312 22.050781 1.078125 18.84375 1.078125 C 12.632812 1.078125 6.710938 -0.691406 1.078125 -4.234375 Z M 1.078125 -4.234375 "/></g></g></g><path stroke-linecap="butt" transform="matrix(0.746528, 0, 0, 0.746528, 145.179754, 23.328927)" fill="none" stroke-linejoin="miter" d="M 38.678981 57.719275 C 37.088283 59.006484 34.99526 59.953577 32.410376 60.560554 C 29.82026 61.157066 26.95805 61.455321 23.823748 61.455321 C 22.280143 61.455321 20.051073 61.423926 17.131306 61.366368 C 14.216771 61.314042 10.569678 61.240786 6.195259 61.1466 L 5.666771 60.63381 L 5.666771 10.380321 L 6.195259 9.851832 C 9.088864 9.757646 12.092352 9.68439 15.200492 9.637297 C 18.313864 9.584972 21.57898 9.564042 25.006306 9.564042 C 29.239446 9.564042 32.76619 10.233809 35.597004 11.583809 C 38.443516 12.923344 40.709213 14.765204 42.39933 17.10939 C 44.099911 19.443111 45.292934 22.184972 45.988864 25.345437 C 46.679562 28.505902 47.024911 31.901833 47.024911 35.538461 C 47.024911 40.519856 46.454562 44.826251 45.313864 48.457647 C 44.173167 52.094275 41.959795 55.181484 38.678981 57.719275 Z M 24.93305 52.12567 C 31.510376 52.12567 34.796422 46.594856 34.796422 35.538461 C 34.796422 24.440205 31.510376 18.893693 24.93305 18.893693 C 23.342352 18.893693 21.934794 18.893693 20.705143 18.893693 C 19.49119 18.893693 18.439445 18.86753 17.555143 18.820437 L 17.555143 52.193693 C 18.439445 52.1466 19.49119 52.12567 20.705143 52.12567 C 21.934794 52.12567 23.342352 52.12567 24.93305 52.12567 Z M 54.041772 48.384391 L 54.041772 33.073926 C 54.041772 29.845437 53.44526 27.349507 52.257469 25.601832 C 54.104562 23.964042 56.344097 23.14253 58.981307 23.14253 C 61.618516 23.14253 63.413283 23.744274 64.360376 24.947763 C 65.307469 26.135553 65.783632 27.951251 65.783632 30.394856 L 65.783632 46.218112 C 65.783632 47.955321 65.977237 49.226833 66.364446 50.027414 C 66.767353 50.817531 67.808632 51.209972 69.498749 51.209972 C 71.152237 51.209972 72.821423 50.367531 74.511539 48.677414 L 74.511539 23.744274 C 76.154563 23.451251 78.064446 23.304739 80.251656 23.304739 C 82.438865 23.304739 84.411539 23.451251 86.159214 23.744274 L 86.159214 50.320437 C 86.159214 53.00474 86.849912 54.820438 88.236539 55.767531 C 87.995842 56.766949 87.519679 57.855321 86.813284 59.032647 C 86.122586 60.199507 85.405726 61.052414 84.662702 61.601833 C 80.581307 61.444856 77.645842 59.697182 75.861539 56.369275 C 71.921423 59.906484 68.211539 61.675089 64.726655 61.675089 C 61.236539 61.675089 58.583632 60.4716 56.757469 58.064624 C 54.947004 55.647182 54.041772 52.418693 54.041772 48.384391 Z M 124.304563 46.144856 L 104.818516 46.144856 C 104.912703 48.379158 105.483051 50.126833 106.529563 51.377414 C 107.576075 52.617531 109.297586 53.234972 111.688865 53.234972 C 112.881889 53.234972 114.258052 53.067531 115.827819 52.722182 C 117.392354 52.3716 119.197586 51.796019 121.238284 50.995438 C 122.881307 52.680321 123.901656 54.972182 124.304563 57.865786 C 120.317354 60.6966 115.435377 62.109391 109.663865 62.109391 C 106.529563 62.109391 103.908051 61.617531 101.788865 60.63381 C 99.674912 59.639624 97.958633 58.247763 96.634795 56.463461 C 95.321423 54.663461 94.390028 52.544275 93.845842 50.10067 C 93.296423 47.657065 93.02433 44.993693 93.02433 42.115786 C 93.02433 39.3216 93.359214 36.747181 94.028981 34.387298 C 94.693516 32.016949 95.713865 29.965786 97.090028 28.228577 C 98.460958 26.47567 100.2034 25.109972 102.322586 24.126251 C 104.43654 23.126832 106.906307 22.629739 109.737121 22.629739 C 112.133633 22.629739 114.284214 23.032646 116.188865 23.833228 C 118.109214 24.623344 119.747005 25.716949 121.097005 27.114042 C 122.441773 28.50067 123.477819 30.164623 124.19468 32.111135 C 124.91154 34.052414 125.267354 36.166368 125.267354 38.452995 C 125.267354 41.487879 124.948168 44.057065 124.304563 46.144856 Z M 104.745261 38.086716 L 114.6034 38.086716 L 114.6034 37.249507 C 114.6034 35.412879 114.190028 33.90067 113.368517 32.712879 C 112.541772 31.509391 111.306889 30.907647 109.663865 30.907647 C 108.073168 30.907647 106.89061 31.472763 106.110958 32.602995 C 105.347005 33.71753 104.891772 35.548926 104.745261 38.086716 Z M 146.914447 52.486717 L 148.939447 52.486717 C 149.535959 54.12974 149.834215 55.772763 149.834215 57.426252 C 149.834215 59.069275 149.760959 60.136717 149.614447 60.63381 C 146.626657 61.120438 143.963285 61.366368 141.629564 61.366368 C 138.238866 61.366368 135.831889 60.534391 134.413866 58.865205 C 133.001075 57.201252 132.29468 54.57974 132.29468 50.995438 L 132.29468 6.571018 L 132.734215 6.04253 L 137.291773 6.04253 C 139.635959 6.04253 141.278982 6.565786 142.21561 7.612297 C 143.162703 8.658809 143.633633 10.474507 143.633633 13.05939 L 143.633633 48.986135 C 143.633633 51.319856 144.727238 52.486717 146.914447 52.486717 Z M 146.914447 52.486717 " stroke="#004932" stroke-width="2.053334" stroke-opacity="1" stroke-miterlimit="4"/><g fill="#009264" fill-opacity="1"><g transform="translate(145.179754, 68.867121)"><g><path d="M 28.875 -2.453125 C 27.6875 -1.484375 26.125 -0.773438 24.1875 -0.328125 C 22.257812 0.109375 20.125 0.328125 17.78125 0.328125 C 16.625 0.328125 14.957031 0.304688 12.78125 0.265625 C 10.613281 0.234375 7.894531 0.179688 4.625 0.109375 L 4.234375 -0.28125 L 4.234375 -37.78125 L 4.625 -38.171875 C 6.78125 -38.253906 9.019531 -38.3125 11.34375 -38.34375 C 13.664062 -38.382812 16.109375 -38.40625 18.671875 -38.40625 C 21.828125 -38.40625 24.460938 -37.898438 26.578125 -36.890625 C 28.703125 -35.890625 30.394531 -34.515625 31.65625 -32.765625 C 32.914062 -31.023438 33.804688 -28.972656 34.328125 -26.609375 C 34.847656 -24.253906 35.109375 -21.71875 35.109375 -19 C 35.109375 -15.289062 34.679688 -12.078125 33.828125 -9.359375 C 32.972656 -6.648438 31.320312 -4.347656 28.875 -2.453125 Z M 18.609375 -6.625 C 23.515625 -6.625 25.96875 -10.75 25.96875 -19 C 25.96875 -27.289062 23.515625 -31.4375 18.609375 -31.4375 C 17.421875 -31.4375 16.367188 -31.4375 15.453125 -31.4375 C 14.546875 -31.4375 13.757812 -31.453125 13.09375 -31.484375 L 13.09375 -6.578125 C 13.757812 -6.609375 14.546875 -6.625 15.453125 -6.625 C 16.367188 -6.625 17.421875 -6.625 18.609375 -6.625 Z M 18.609375 -6.625 "/></g></g></g><g fill="#009264" fill-opacity="1"><g transform="translate(182.353638, 68.867121)"><g><path d="M 3.171875 -9.421875 L 3.171875 -20.84375 C 3.171875 -23.257812 2.726562 -25.117188 1.84375 -26.421875 C 3.21875 -27.640625 4.890625 -28.25 6.859375 -28.25 C 8.828125 -28.25 10.160156 -27.800781 10.859375 -26.90625 C 11.566406 -26.019531 11.921875 -24.664062 11.921875 -22.84375 L 11.921875 -11.03125 C 11.921875 -9.726562 12.066406 -8.78125 12.359375 -8.1875 C 12.660156 -7.59375 13.445312 -7.296875 14.71875 -7.296875 C 15.9375 -7.296875 17.179688 -7.929688 18.453125 -9.203125 L 18.453125 -27.8125 C 19.671875 -28.03125 21.097656 -28.140625 22.734375 -28.140625 C 24.367188 -28.140625 25.835938 -28.03125 27.140625 -27.8125 L 27.140625 -7.96875 C 27.140625 -5.957031 27.660156 -4.601562 28.703125 -3.90625 C 28.515625 -3.15625 28.160156 -2.34375 27.640625 -1.46875 C 27.117188 -0.601562 26.582031 0.0351562 26.03125 0.453125 C 22.976562 0.335938 20.785156 -0.960938 19.453125 -3.453125 C 16.515625 -0.816406 13.742188 0.5 11.140625 0.5 C 8.546875 0.5 6.566406 -0.398438 5.203125 -2.203125 C 3.847656 -4.003906 3.171875 -6.410156 3.171875 -9.421875 Z M 3.171875 -9.421875 "/></g></g></g><g fill="#009264" fill-opacity="1"><g transform="translate(212.951036, 68.867121)"><g><path d="M 25.03125 -11.09375 L 10.484375 -11.09375 C 10.554688 -9.414062 10.984375 -8.113281 11.765625 -7.1875 C 12.546875 -6.257812 13.828125 -5.796875 15.609375 -5.796875 C 16.492188 -5.796875 17.519531 -5.925781 18.6875 -6.1875 C 19.863281 -6.445312 21.210938 -6.875 22.734375 -7.46875 C 23.960938 -6.207031 24.726562 -4.5 25.03125 -2.34375 C 22.050781 -0.21875 18.40625 0.84375 14.09375 0.84375 C 11.757812 0.84375 9.800781 0.472656 8.21875 -0.265625 C 6.644531 -1.015625 5.363281 -2.054688 4.375 -3.390625 C 3.382812 -4.734375 2.6875 -6.316406 2.28125 -8.140625 C 1.875 -9.960938 1.671875 -11.945312 1.671875 -14.09375 C 1.671875 -16.175781 1.921875 -18.097656 2.421875 -19.859375 C 2.921875 -21.628906 3.679688 -23.164062 4.703125 -24.46875 C 5.734375 -25.769531 7.035156 -26.789062 8.609375 -27.53125 C 10.191406 -28.269531 12.039062 -28.640625 14.15625 -28.640625 C 15.9375 -28.640625 17.539062 -28.34375 18.96875 -27.75 C 20.40625 -27.15625 21.625 -26.335938 22.625 -25.296875 C 23.632812 -24.265625 24.40625 -23.019531 24.9375 -21.5625 C 25.476562 -20.113281 25.75 -18.535156 25.75 -16.828125 C 25.75 -14.566406 25.507812 -12.65625 25.03125 -11.09375 Z M 10.421875 -17.109375 L 17.78125 -17.109375 L 17.78125 -17.71875 C 17.78125 -19.09375 17.472656 -20.226562 16.859375 -21.125 C 16.242188 -22.019531 15.320312 -22.46875 14.09375 -22.46875 C 12.90625 -22.46875 12.023438 -22.046875 11.453125 -21.203125 C 10.878906 -20.367188 10.535156 -19.003906 10.421875 -17.109375 Z M 10.421875 -17.109375 "/></g></g></g><g fill="#009264" fill-opacity="1"><g transform="translate(240.650319, 68.867121)"><g><path d="M 14.21875 -6.359375 L 15.71875 -6.359375 C 16.164062 -5.128906 16.390625 -3.898438 16.390625 -2.671875 C 16.390625 -1.453125 16.332031 -0.65625 16.21875 -0.28125 C 13.988281 0.09375 12 0.28125 10.25 0.28125 C 7.726562 0.28125 5.9375 -0.335938 4.875 -1.578125 C 3.8125 -2.828125 3.28125 -4.789062 3.28125 -7.46875 L 3.28125 -40.625 L 3.625 -41.015625 L 7.015625 -41.015625 C 8.765625 -41.015625 9.992188 -40.625 10.703125 -39.84375 C 11.410156 -39.0625 11.765625 -37.707031 11.765625 -35.78125 L 11.765625 -8.96875 C 11.765625 -7.226562 12.582031 -6.359375 14.21875 -6.359375 Z M 14.21875 -6.359375 "/></g></g></g><path fill="#009264" d="M 111.773438 16.3125 L 134.753906 23.445312 C 139.023438 24.769531 141.414062 29.3125 140.089844 33.582031 L 118.242188 103.992188 L 121.863281 115.59375 C 123.191406 119.859375 120.808594 124.40625 116.542969 125.738281 L 115.558594 126.042969 L 115.558594 127.816406 C 115.558594 131.984375 112.402344 135.417969 108.351562 135.863281 L 109.707031 131.496094 C 110.945312 130.738281 111.773438 129.371094 111.773438 127.816406 L 111.773438 127.226562 L 96.050781 132.128906 L 107.457031 132.128906 C 108.28125 132.128906 109.050781 131.898438 109.707031 131.496094 L 106.976562 140.304688 C 105.648438 144.574219 101.109375 146.964844 96.839844 145.640625 L 74.734375 138.78125 L 45.28125 147.972656 C 41.011719 149.300781 36.46875 146.917969 35.136719 142.652344 L 29.554688 124.761719 L 31.753906 125.445312 L 29.554688 124.761719 L 28.492188 121.359375 L 29.554688 124.761719 L 25.542969 123.515625 L 28.492188 124.433594 L 28.492188 127.816406 C 28.492188 129.855469 29.914062 131.566406 31.816406 132.015625 L 33.035156 135.914062 L 32.808594 135.914062 C 28.335938 135.914062 24.707031 132.285156 24.707031 127.816406 L 24.707031 123.207031 C 20.96875 121.582031 18.972656 117.363281 20.207031 113.382812 L 23.097656 104.066406 L 1.855469 35.980469 C 0.523438 31.710938 2.90625 27.167969 7.175781 25.835938 L 27.46875 19.503906 L 24.707031 20.363281 L 24.707031 16.070312 C 24.707031 11.601562 28.335938 7.972656 32.808594 7.972656 L 52.914062 7.972656 L 51.738281 11.757812 L 32.808594 11.757812 C 30.425781 11.757812 28.492188 13.691406 28.492188 16.070312 L 28.492188 19.183594 L 51.679688 11.949219 L 50.316406 16.339844 L 8.300781 29.449219 C 6.027344 30.15625 4.757812 32.578125 5.46875 34.851562 L 38.75 141.523438 C 39.457031 143.796875 41.878906 145.066406 44.152344 144.359375 L 115.414062 122.125 L 115.558594 122.078125 L 115.582031 122.066406 C 117.75 121.296875 118.941406 118.9375 118.25 116.71875 L 84.96875 10.046875 C 84.703125 9.199219 84.199219 8.492188 83.554688 7.972656 L 83.542969 7.960938 C 82.460938 7.101562 80.984375 6.773438 79.5625 7.214844 L 50.316406 16.339844 L 53.320312 6.65625 C 54.648438 2.386719 59.1875 -0.00390625 63.457031 1.320312 L 87.785156 8.871094 L 74.632812 4.789062 L 78.4375 3.601562 C 82.375 2.371094 86.550781 4.308594 88.214844 7.972656 L 88.316406 8.199219 C 88.289062 8.132812 88.257812 8.066406 88.230469 8 C 88.230469 8 88.214844 7.972656 88.214844 7.972656 L 107.457031 7.972656 C 111.929688 7.972656 115.558594 11.601562 115.558594 16.070312 L 115.558594 17.488281 L 111.773438 16.3125 L 111.773438 16.070312 C 111.773438 13.691406 109.839844 11.757812 107.457031 11.757812 L 89.464844 11.757812 L 90.015625 13.523438 L 88.617188 13.089844 L 90.015625 13.523438 L 111.773438 83.257812 Z M 104.375 135.914062 L 83.921875 135.914062 L 81.101562 136.792969 L 97.960938 142.023438 C 100.234375 142.730469 102.65625 141.457031 103.359375 139.183594 Z M 107.460938 135.914062 Z M 107.464844 135.914062 C 107.464844 135.914062 107.460938 135.914062 107.460938 135.914062 Z M 107.46875 135.914062 Z M 107.472656 135.914062 C 107.472656 135.914062 107.46875 135.914062 107.46875 135.914062 Z M 107.472656 135.914062 Z M 107.472656 135.914062 L 107.476562 135.914062 C 107.472656 135.914062 107.472656 135.914062 107.472656 135.914062 Z M 107.476562 135.914062 Z M 107.480469 135.914062 Z M 107.492188 135.914062 Z M 107.496094 135.914062 L 107.492188 135.914062 Z M 107.503906 135.914062 Z M 107.511719 135.914062 L 107.507812 135.914062 Z M 107.511719 135.914062 Z M 107.53125 135.914062 Z M 107.570312 135.914062 L 107.566406 135.914062 Z M 107.578125 135.914062 Z M 107.597656 135.914062 Z M 107.597656 135.914062 Z M 107.605469 135.914062 Z M 107.609375 135.914062 Z M 107.617188 135.914062 Z M 107.621094 135.914062 Z M 107.621094 135.914062 Z M 107.625 135.914062 Z M 107.628906 135.914062 L 107.625 135.914062 Z M 107.628906 135.914062 Z M 107.628906 135.914062 Z M 107.632812 135.914062 Z M 107.644531 135.914062 Z M 107.65625 135.914062 Z M 107.660156 135.914062 Z M 107.664062 135.914062 Z M 107.664062 135.914062 Z M 107.671875 135.914062 C 107.667969 135.914062 107.667969 135.914062 107.667969 135.914062 C 107.667969 135.914062 107.667969 135.914062 107.671875 135.914062 Z M 107.675781 135.910156 Z M 107.675781 135.910156 Z M 107.683594 135.910156 C 107.683594 135.910156 107.679688 135.910156 107.679688 135.910156 Z M 107.6875 135.910156 L 107.683594 135.910156 Z M 107.6875 135.910156 Z M 107.6875 135.910156 Z M 107.6875 135.910156 Z M 107.695312 135.910156 Z M 107.695312 135.910156 Z M 107.699219 135.910156 Z M 107.703125 135.910156 Z M 107.71875 135.910156 Z M 107.722656 135.910156 Z M 107.726562 135.910156 Z M 107.726562 135.910156 Z M 107.730469 135.910156 Z M 107.730469 135.910156 Z M 107.742188 135.910156 Z M 107.746094 135.910156 L 107.742188 135.910156 Z M 107.75 135.910156 C 107.746094 135.910156 107.746094 135.910156 107.746094 135.910156 Z M 107.753906 135.910156 Z M 107.753906 135.910156 Z M 107.753906 135.910156 Z M 107.769531 135.910156 Z M 107.769531 135.910156 Z M 107.773438 135.910156 C 107.773438 135.910156 107.769531 135.910156 107.769531 135.910156 Z M 107.777344 135.910156 Z M 107.78125 135.910156 C 107.78125 135.910156 107.78125 135.910156 107.777344 135.910156 C 107.78125 135.910156 107.78125 135.910156 107.78125 135.910156 Z M 107.785156 135.910156 C 107.78125 135.910156 107.78125 135.910156 107.78125 135.910156 C 107.78125 135.910156 107.78125 135.910156 107.785156 135.910156 Z M 107.785156 135.910156 Z M 107.789062 135.90625 Z M 107.792969 135.90625 Z M 107.792969 135.90625 Z M 107.796875 135.90625 Z M 107.796875 135.90625 Z M 107.800781 135.90625 Z M 107.800781 135.90625 Z M 107.804688 135.90625 Z M 107.804688 135.90625 Z M 107.808594 135.90625 L 107.804688 135.90625 Z M 107.808594 135.90625 Z M 107.808594 135.90625 Z M 107.8125 135.90625 Z M 107.816406 135.90625 Z M 107.820312 135.90625 Z M 107.824219 135.90625 Z M 107.832031 135.90625 C 107.832031 135.90625 107.832031 135.90625 107.828125 135.90625 Z M 107.839844 135.90625 Z M 107.84375 135.90625 Z M 107.84375 135.90625 Z M 107.847656 135.90625 Z M 107.859375 135.90625 Z M 107.863281 135.90625 Z M 107.867188 135.90625 Z M 107.882812 135.902344 Z M 107.890625 135.902344 Z M 107.890625 135.902344 Z M 107.902344 135.902344 Z M 107.902344 135.902344 Z M 107.90625 135.902344 Z M 107.910156 135.902344 Z M 107.910156 135.902344 Z M 107.910156 135.902344 Z M 107.914062 135.902344 Z M 107.917969 135.902344 Z M 107.921875 135.902344 Z M 107.921875 135.902344 Z M 107.921875 135.902344 Z M 107.925781 135.902344 Z M 107.925781 135.902344 Z M 107.929688 135.902344 Z M 107.929688 135.902344 Z M 107.9375 135.902344 C 107.933594 135.902344 107.933594 135.902344 107.929688 135.902344 C 107.933594 135.902344 107.933594 135.902344 107.9375 135.902344 Z M 107.941406 135.902344 C 107.9375 135.902344 107.9375 135.902344 107.9375 135.902344 C 107.9375 135.902344 107.9375 135.902344 107.941406 135.902344 Z M 107.941406 135.902344 Z M 107.941406 135.902344 Z M 107.941406 135.902344 Z M 107.945312 135.898438 Z M 107.949219 135.898438 Z M 107.960938 135.898438 Z M 107.964844 135.898438 L 107.960938 135.898438 Z M 107.96875 135.898438 L 107.972656 135.898438 Z M 107.976562 135.898438 Z M 107.976562 135.898438 Z M 107.980469 135.898438 L 107.976562 135.898438 Z M 107.984375 135.898438 L 107.980469 135.898438 Z M 107.988281 135.898438 C 107.984375 135.898438 107.984375 135.898438 107.984375 135.898438 Z M 107.988281 135.898438 Z M 107.992188 135.898438 Z M 107.992188 135.898438 Z M 108 135.898438 C 108 135.898438 107.996094 135.898438 107.996094 135.898438 C 107.996094 135.898438 108 135.898438 108 135.898438 Z M 108.136719 135.886719 L 108.132812 135.886719 Z M 108.140625 135.886719 C 108.140625 135.886719 108.136719 135.886719 108.136719 135.886719 Z M 108.140625 135.886719 Z M 108.140625 135.886719 Z M 108.144531 135.886719 Z M 108.152344 135.886719 Z M 108.167969 135.882812 Z M 108.167969 135.882812 Z M 108.175781 135.882812 Z M 108.175781 135.882812 Z M 108.191406 135.882812 L 108.1875 135.882812 Z M 108.203125 135.878906 Z M 108.207031 135.878906 Z M 108.210938 135.878906 Z M 108.214844 135.878906 Z M 108.214844 135.878906 Z M 108.21875 135.878906 C 108.214844 135.878906 108.214844 135.878906 108.214844 135.878906 C 108.214844 135.878906 108.214844 135.878906 108.21875 135.878906 Z M 108.230469 135.878906 L 108.226562 135.878906 Z M 108.234375 135.878906 C 108.234375 135.878906 108.230469 135.878906 108.230469 135.878906 C 108.230469 135.878906 108.234375 135.878906 108.234375 135.878906 Z M 108.234375 135.878906 Z M 108.253906 135.875 C 108.25 135.875 108.25 135.875 108.25 135.875 C 108.25 135.875 108.25 135.875 108.253906 135.875 Z M 108.253906 135.875 Z M 108.257812 135.875 Z M 108.261719 135.875 L 108.257812 135.875 Z M 108.261719 135.875 Z M 108.265625 135.875 C 108.265625 135.875 108.265625 135.875 108.261719 135.875 C 108.265625 135.875 108.265625 135.875 108.265625 135.875 Z M 108.265625 135.875 Z M 108.269531 135.875 C 108.269531 135.875 108.265625 135.875 108.265625 135.875 C 108.265625 135.875 108.269531 135.875 108.269531 135.875 Z M 108.269531 135.875 Z M 108.273438 135.875 Z M 108.273438 135.875 Z M 108.277344 135.871094 Z M 108.277344 135.871094 Z M 108.289062 135.871094 Z M 108.289062 135.871094 Z M 108.292969 135.871094 Z M 108.292969 135.871094 Z M 108.296875 135.871094 Z M 108.304688 135.871094 Z M 108.308594 135.871094 Z M 108.308594 135.871094 Z M 108.316406 135.867188 C 108.3125 135.871094 108.3125 135.871094 108.308594 135.871094 C 108.3125 135.871094 108.3125 135.871094 108.316406 135.867188 Z M 108.316406 135.867188 Z M 108.316406 135.867188 Z M 108.320312 135.867188 Z M 108.324219 135.867188 Z M 108.324219 135.867188 Z M 108.328125 135.867188 L 108.324219 135.867188 Z M 108.332031 135.867188 Z M 108.335938 135.867188 L 108.332031 135.867188 Z M 108.335938 135.867188 Z M 108.339844 135.867188 Z M 108.339844 135.867188 Z M 108.34375 135.867188 Z M 108.351562 135.863281 C 108.351562 135.863281 108.347656 135.863281 108.347656 135.867188 Z M 25.542969 123.515625 Z M 25.535156 123.515625 Z M 25.535156 123.515625 Z M 25.527344 123.511719 L 25.53125 123.515625 C 25.53125 123.515625 25.53125 123.511719 25.527344 123.511719 Z M 25.523438 123.511719 C 25.527344 123.511719 25.527344 123.511719 25.527344 123.511719 C 25.527344 123.511719 25.527344 123.511719 25.523438 123.511719 Z M 25.523438 123.511719 Z M 25.519531 123.511719 Z M 25.515625 123.507812 C 25.515625 123.507812 25.515625 123.507812 25.519531 123.511719 C 25.515625 123.507812 25.515625 123.507812 25.515625 123.507812 Z M 25.507812 123.507812 C 25.511719 123.507812 25.511719 123.507812 25.515625 123.507812 C 25.511719 123.507812 25.511719 123.507812 25.507812 123.507812 Z M 25.5 123.503906 C 25.503906 123.503906 25.503906 123.503906 25.507812 123.507812 C 25.503906 123.503906 25.503906 123.503906 25.5 123.503906 Z M 25.5 123.503906 Z M 25.496094 123.503906 C 25.496094 123.503906 25.5 123.503906 25.5 123.503906 C 25.5 123.503906 25.496094 123.503906 25.496094 123.503906 Z M 25.496094 123.503906 Z M 25.488281 123.5 C 25.492188 123.5 25.492188 123.5 25.496094 123.503906 C 25.492188 123.5 25.492188 123.5 25.488281 123.5 Z M 25.484375 123.5 Z M 25.480469 123.5 Z M 25.46875 123.492188 C 25.472656 123.496094 25.476562 123.496094 25.480469 123.496094 C 25.476562 123.496094 25.472656 123.496094 25.46875 123.492188 Z M 25.46875 123.492188 Z M 25.449219 123.488281 C 25.453125 123.488281 25.460938 123.492188 25.464844 123.492188 C 25.460938 123.492188 25.453125 123.488281 25.449219 123.488281 Z M 25.441406 123.484375 C 25.445312 123.484375 25.445312 123.488281 25.445312 123.488281 C 25.445312 123.488281 25.445312 123.484375 25.441406 123.484375 Z M 25.441406 123.484375 Z M 25.433594 123.484375 C 25.4375 123.484375 25.4375 123.484375 25.4375 123.484375 C 25.4375 123.484375 25.4375 123.484375 25.433594 123.484375 Z M 25.429688 123.480469 C 25.433594 123.480469 25.433594 123.484375 25.433594 123.484375 C 25.433594 123.484375 25.433594 123.480469 25.429688 123.480469 Z M 25.429688 123.480469 Z M 25.425781 123.480469 C 25.429688 123.480469 25.429688 123.480469 25.429688 123.480469 C 25.429688 123.480469 25.429688 123.480469 25.425781 123.480469 Z M 25.425781 123.480469 Z M 25.421875 123.480469 Z M 25.421875 123.480469 Z M 25.417969 123.476562 Z M 25.414062 123.476562 Z M 25.410156 123.476562 Z M 25.410156 123.476562 Z M 25.40625 123.472656 Z M 25.402344 123.472656 C 25.40625 123.472656 25.40625 123.472656 25.40625 123.472656 C 25.40625 123.472656 25.40625 123.472656 25.402344 123.472656 Z M 25.398438 123.472656 C 25.398438 123.472656 25.402344 123.472656 25.402344 123.472656 C 25.402344 123.472656 25.398438 123.472656 25.398438 123.472656 Z M 25.398438 123.472656 Z M 25.398438 123.472656 Z M 25.386719 123.46875 Z M 25.382812 123.464844 Z M 25.375 123.464844 C 25.375 123.464844 25.375 123.464844 25.378906 123.464844 C 25.375 123.464844 25.375 123.464844 25.375 123.464844 Z M 25.371094 123.460938 Z M 25.371094 123.460938 Z M 25.367188 123.460938 C 25.367188 123.460938 25.367188 123.460938 25.371094 123.460938 C 25.367188 123.460938 25.367188 123.460938 25.367188 123.460938 Z M 25.367188 123.460938 Z M 25.367188 123.460938 Z M 25.363281 123.460938 Z M 25.359375 123.457031 C 25.359375 123.457031 25.363281 123.460938 25.363281 123.460938 C 25.363281 123.460938 25.359375 123.457031 25.359375 123.457031 Z M 25.355469 123.457031 Z M 25.355469 123.457031 Z M 25.34375 123.453125 C 25.34375 123.453125 25.347656 123.453125 25.347656 123.453125 C 25.347656 123.453125 25.34375 123.453125 25.34375 123.453125 Z M 25.34375 123.453125 Z M 25.339844 123.453125 Z M 25.339844 123.453125 Z M 25.335938 123.449219 Z M 25.324219 123.445312 C 25.328125 123.449219 25.332031 123.449219 25.332031 123.449219 C 25.332031 123.449219 25.328125 123.449219 25.324219 123.445312 Z M 25.320312 123.445312 C 25.320312 123.445312 25.320312 123.445312 25.324219 123.445312 C 25.320312 123.445312 25.320312 123.445312 25.320312 123.445312 Z M 25.316406 123.445312 Z M 25.316406 123.445312 Z M 25.3125 123.441406 L 25.316406 123.445312 C 25.316406 123.441406 25.3125 123.441406 25.3125 123.441406 Z M 25.308594 123.441406 C 25.308594 123.441406 25.3125 123.441406 25.3125 123.441406 C 25.3125 123.441406 25.308594 123.441406 25.308594 123.441406 Z M 25.304688 123.441406 Z M 25.304688 123.441406 Z M 25.304688 123.4375 Z M 25.300781 123.4375 Z M 25.300781 123.4375 Z M 25.296875 123.4375 C 25.296875 123.4375 25.300781 123.4375 25.300781 123.4375 C 25.296875 123.4375 25.296875 123.4375 25.296875 123.4375 Z M 25.296875 123.4375 Z M 25.292969 123.4375 L 25.296875 123.4375 Z M 25.292969 123.433594 C 25.292969 123.4375 25.292969 123.4375 25.292969 123.4375 C 25.292969 123.4375 25.292969 123.4375 25.292969 123.433594 Z M 25.292969 123.433594 Z M 25.277344 123.429688 Z M 25.273438 123.429688 Z M 25.269531 123.425781 L 25.269531 123.429688 C 25.269531 123.425781 25.269531 123.425781 25.269531 123.425781 Z M 25.265625 123.425781 C 25.265625 123.425781 25.265625 123.425781 25.269531 123.425781 C 25.265625 123.425781 25.265625 123.425781 25.265625 123.425781 Z M 25.261719 123.425781 L 25.265625 123.425781 C 25.265625 123.425781 25.261719 123.425781 25.261719 123.425781 Z M 25.261719 123.425781 Z M 25.25 123.421875 C 25.253906 123.421875 25.257812 123.421875 25.261719 123.425781 C 25.257812 123.421875 25.253906 123.421875 25.25 123.421875 Z M 25.25 123.421875 Z M 25.246094 123.417969 Z M 25.242188 123.417969 Z M 25.242188 123.417969 Z M 25.238281 123.417969 Z M 25.238281 123.417969 Z M 25.234375 123.414062 C 25.234375 123.414062 25.234375 123.414062 25.238281 123.414062 C 25.234375 123.414062 25.234375 123.414062 25.234375 123.414062 Z M 25.230469 123.414062 C 25.230469 123.414062 25.234375 123.414062 25.234375 123.414062 C 25.234375 123.414062 25.230469 123.414062 25.230469 123.414062 Z M 25.226562 123.414062 C 25.226562 123.414062 25.230469 123.414062 25.230469 123.414062 C 25.230469 123.414062 25.226562 123.414062 25.226562 123.414062 Z M 25.222656 123.410156 C 25.222656 123.410156 25.222656 123.410156 25.226562 123.414062 C 25.222656 123.410156 25.222656 123.410156 25.222656 123.410156 Z M 25.21875 123.410156 Z M 25.210938 123.40625 L 25.214844 123.40625 Z M 25.210938 123.40625 Z M 25.207031 123.40625 Z M 25.199219 123.402344 C 25.199219 123.402344 25.203125 123.402344 25.203125 123.40625 C 25.203125 123.402344 25.199219 123.402344 25.199219 123.402344 Z M 25.195312 123.402344 C 25.195312 123.402344 25.195312 123.402344 25.199219 123.402344 C 25.195312 123.402344 25.195312 123.402344 25.195312 123.402344 Z M 25.15625 123.386719 C 25.164062 123.390625 25.167969 123.390625 25.175781 123.394531 C 25.183594 123.394531 25.1875 123.398438 25.195312 123.402344 C 25.183594 123.398438 25.167969 123.390625 25.15625 123.386719 Z M 25.15625 123.386719 Z M 25.109375 123.371094 C 25.117188 123.371094 25.125 123.375 25.132812 123.378906 C 25.140625 123.378906 25.148438 123.382812 25.15625 123.386719 C 25.148438 123.382812 25.140625 123.378906 25.132812 123.378906 C 25.125 123.375 25.117188 123.371094 25.109375 123.371094 Z M 25.105469 123.367188 Z M 25.085938 123.359375 C 25.09375 123.363281 25.097656 123.367188 25.105469 123.367188 C 25.097656 123.367188 25.09375 123.363281 25.085938 123.359375 Z M 25.078125 123.359375 C 25.082031 123.359375 25.082031 123.359375 25.085938 123.359375 C 25.082031 123.359375 25.082031 123.359375 25.078125 123.359375 Z M 25.074219 123.355469 C 25.074219 123.355469 25.074219 123.355469 25.078125 123.355469 C 25.074219 123.355469 25.074219 123.355469 25.074219 123.355469 Z M 25.070312 123.355469 Z M 25.070312 123.355469 Z M 25.070312 123.355469 Z M 25.066406 123.351562 C 25.066406 123.355469 25.066406 123.355469 25.070312 123.355469 C 25.066406 123.355469 25.066406 123.355469 25.066406 123.351562 Z M 25.0625 123.351562 Z M 25.058594 123.351562 C 25.058594 123.351562 25.0625 123.351562 25.0625 123.351562 C 25.0625 123.351562 25.058594 123.351562 25.058594 123.351562 Z M 25.058594 123.351562 Z M 25.050781 123.347656 Z M 25.046875 123.347656 Z M 25.046875 123.34375 C 25.046875 123.34375 25.046875 123.34375 25.046875 123.347656 C 25.046875 123.34375 25.046875 123.34375 25.046875 123.34375 Z M 25.039062 123.34375 C 25.039062 123.34375 25.042969 123.34375 25.042969 123.34375 C 25.042969 123.34375 25.039062 123.34375 25.039062 123.34375 Z M 25.035156 123.34375 Z M 25.035156 123.339844 Z M 25.027344 123.339844 C 25.027344 123.339844 25.03125 123.339844 25.03125 123.339844 C 25.03125 123.339844 25.027344 123.339844 25.027344 123.339844 Z M 25.019531 123.335938 C 25.023438 123.335938 25.023438 123.335938 25.023438 123.335938 C 25.023438 123.335938 25.023438 123.335938 25.019531 123.335938 Z M 25.011719 123.332031 C 25.015625 123.332031 25.015625 123.335938 25.019531 123.335938 C 25.015625 123.335938 25.015625 123.332031 25.011719 123.332031 Z M 25.011719 123.332031 Z M 25.007812 123.332031 Z M 25.007812 123.332031 Z M 25.003906 123.328125 Z M 25.003906 123.328125 Z M 24.996094 123.324219 C 24.996094 123.328125 25 123.328125 25.003906 123.328125 C 25 123.328125 24.996094 123.328125 24.996094 123.324219 Z M 24.988281 123.324219 C 24.992188 123.324219 24.992188 123.324219 24.992188 123.324219 C 24.992188 123.324219 24.992188 123.324219 24.988281 123.324219 Z M 24.988281 123.324219 Z M 24.984375 123.324219 L 24.988281 123.324219 Z M 24.984375 123.320312 L 24.984375 123.324219 Z M 24.972656 123.316406 C 24.976562 123.320312 24.980469 123.320312 24.984375 123.320312 C 24.980469 123.320312 24.976562 123.320312 24.972656 123.316406 Z M 24.972656 123.316406 Z M 24.96875 123.316406 Z M 24.96875 123.316406 Z M 24.964844 123.3125 C 24.964844 123.3125 24.964844 123.3125 24.964844 123.316406 C 24.964844 123.3125 24.964844 123.3125 24.964844 123.3125 Z M 24.960938 123.3125 Z M 24.960938 123.3125 Z M 24.960938 123.3125 Z M 24.953125 123.308594 C 24.953125 123.308594 24.957031 123.308594 24.957031 123.3125 C 24.957031 123.308594 24.953125 123.308594 24.953125 123.308594 Z M 24.953125 123.308594 Z M 24.949219 123.308594 Z M 24.949219 123.308594 Z M 24.9375 123.304688 C 24.941406 123.304688 24.945312 123.304688 24.949219 123.308594 C 24.945312 123.304688 24.941406 123.304688 24.9375 123.304688 Z M 24.933594 123.300781 L 24.9375 123.304688 C 24.9375 123.300781 24.9375 123.300781 24.933594 123.300781 Z M 24.933594 123.300781 Z M 24.929688 123.300781 L 24.933594 123.300781 Z M 24.898438 123.285156 C 24.902344 123.289062 24.910156 123.292969 24.914062 123.292969 C 24.917969 123.296875 24.925781 123.296875 24.929688 123.300781 C 24.925781 123.296875 24.917969 123.296875 24.914062 123.292969 C 24.910156 123.292969 24.902344 123.289062 24.898438 123.285156 Z M 24.894531 123.285156 C 24.894531 123.285156 24.894531 123.285156 24.898438 123.285156 C 24.894531 123.285156 24.894531 123.285156 24.894531 123.285156 Z M 24.890625 123.285156 C 24.890625 123.285156 24.890625 123.285156 24.894531 123.285156 C 24.890625 123.285156 24.890625 123.285156 24.890625 123.285156 Z M 24.886719 123.28125 C 24.886719 123.28125 24.890625 123.285156 24.890625 123.285156 C 24.890625 123.285156 24.886719 123.28125 24.886719 123.28125 Z M 24.886719 123.28125 Z M 24.882812 123.28125 L 24.886719 123.28125 Z M 24.882812 123.28125 Z M 24.878906 123.277344 L 24.878906 123.28125 Z M 24.878906 123.277344 Z M 24.875 123.277344 Z M 24.867188 123.273438 Z M 24.867188 123.273438 Z M 24.863281 123.273438 Z M 24.863281 123.273438 Z M 24.855469 123.269531 Z M 24.851562 123.269531 Z M 24.851562 123.265625 Z M 24.847656 123.265625 Z M 24.839844 123.261719 C 24.84375 123.265625 24.84375 123.265625 24.847656 123.265625 C 24.84375 123.265625 24.84375 123.265625 24.839844 123.261719 Z M 24.835938 123.261719 Z M 24.832031 123.261719 C 24.835938 123.261719 24.835938 123.261719 24.835938 123.261719 C 24.835938 123.261719 24.835938 123.261719 24.832031 123.261719 Z M 24.828125 123.257812 L 24.832031 123.261719 C 24.832031 123.257812 24.832031 123.257812 24.828125 123.257812 Z M 24.828125 123.257812 Z M 24.824219 123.257812 Z M 24.824219 123.257812 Z M 24.820312 123.253906 Z M 24.8125 123.25 Z M 24.808594 123.25 Z M 24.800781 123.246094 Z M 24.800781 123.246094 Z M 24.796875 123.246094 Z M 24.792969 123.242188 Z M 24.792969 123.242188 Z M 24.789062 123.242188 Z M 24.785156 123.238281 L 24.78125 123.238281 C 24.78125 123.238281 24.785156 123.238281 24.785156 123.238281 Z M 24.777344 123.238281 Z M 24.777344 123.234375 C 24.777344 123.238281 24.777344 123.238281 24.777344 123.238281 C 24.777344 123.238281 24.777344 123.238281 24.777344 123.234375 Z M 24.773438 123.234375 Z M 24.769531 123.234375 C 24.769531 123.234375 24.773438 123.234375 24.773438 123.234375 C 24.773438 123.234375 24.769531 123.234375 24.769531 123.234375 Z M 24.769531 123.234375 Z M 24.757812 123.226562 C 24.757812 123.230469 24.761719 123.230469 24.761719 123.230469 C 24.761719 123.230469 24.757812 123.230469 24.757812 123.226562 Z M 24.757812 123.226562 Z M 24.753906 123.226562 Z M 24.75 123.226562 C 24.75 123.226562 24.753906 123.226562 24.753906 123.226562 C 24.753906 123.226562 24.75 123.226562 24.75 123.226562 Z M 24.746094 123.222656 C 24.75 123.222656 24.75 123.222656 24.75 123.222656 C 24.75 123.222656 24.75 123.222656 24.746094 123.222656 Z M 24.746094 123.222656 Z M 24.746094 123.222656 Z M 24.742188 123.222656 Z M 24.738281 123.21875 Z M 24.738281 123.21875 Z M 24.734375 123.21875 Z M 24.734375 123.21875 Z M 24.730469 123.214844 Z M 24.722656 123.214844 Z M 24.71875 123.210938 Z M 24.707031 123.207031 Z M 25.101562 110.382812 L 23.820312 114.503906 C 23.359375 115.992188 23.746094 117.546875 24.707031 118.636719 C 25.214844 119.210938 25.878906 119.660156 26.664062 119.902344 L 28.1875 120.375 L 28.484375 121.332031 L 26.257812 114.199219 Z M 115.554688 95.386719 L 116.253906 97.625 L 114.277344 103.992188 L 136.476562 32.460938 C 137.179688 30.183594 135.90625 27.765625 133.632812 27.058594 L 115.554688 21.449219 Z M 68.261719 6.777344 L 62.335938 4.9375 C 60.0625 4.230469 57.640625 5.503906 56.9375 7.777344 L 56.875 7.972656 L 64.425781 7.972656 Z M 68.261719 6.777344 " fill-opacity="1" fill-rule="evenodd"/></svg>